<svg width="400" height="116" viewBox="0 0 400 116" fill="none" xmlns="http://www.w3.org/2000/svg">
<rect x="1" y="1" width="398" height="114" rx="57" fill="#111111" stroke="#3A3A3A"/><g><circle cx="62" cy="58" r="37" fill="#E8E2D8"/><circle cx="62" cy="47" r="13" fill="#222"/><path d="M38 84c5-18 43-18 48 0" fill="#2C2C2C"/><circle cx="116" cy="58" r="37" fill="#D9D9D9"/><circle cx="116" cy="46" r="13" fill="#303030"/><path d="M92 84c5-18 43-18 48 0" fill="#444"/><circle cx="170" cy="58" r="37" fill="#EDE7DE"/><circle cx="170" cy="47" r="13" fill="#777"/><path d="M146 84c5-18 43-18 48 0" fill="#999"/><circle cx="224" cy="58" r="37" fill="#CFCFCF"/><circle cx="224" cy="46" r="13" fill="#222"/><path d="M200 84c5-18 43-18 48 0" fill="#333"/></g><circle cx="292" cy="58" r="38" fill="#141414" stroke="#6A6A6A" stroke-width="2" stroke-dasharray="7 7"/><path d="M292 47v22M281 58h22" stroke="#E8E8E8" stroke-width="3" stroke-linecap="round"/><circle cx="354" cy="58" r="7" fill="#FF4F2F"/>
</svg>
